Coordinates
version=1
nRows=6
nColumns=36
inDegrees=yes

Units are S.I. units (second, meters, Newtons, ...)
If the header above contains a line with 'inDegrees', this indicates whether rotational values are in degrees (yes) or radians (no).

endheader
time	pelvis_tilt	pelvis_list	pelvis_rotation	pelvis_tx	pelvis_ty	pelvis_tz	hip_flexion_r	hip_adduction_r	hip_rotation_r	knee_angle_r	knee_angle_r_beta	ankle_angle_r	subtalar_angle_r	mtp_angle_r	hip_flexion_l	hip_adduction_l	hip_rotation_l	knee_angle_l	knee_angle_l_beta	ankle_angle_l	subtalar_angle_l	mtp_angle_l	lumbar_extension	lumbar_bending	lumbar_rotation	arm_flex_r	arm_add_r	arm_rot_r	elbow_flex_r	pro_sup_r	arm_flex_l	arm_add_l	arm_rot_l	elbow_flex_l	pro_sup_l
      0.00000000	      4.81976741	     -2.63235266	     -2.25449745	      0.89862108	      0.94162769	      0.71352168	     11.30769618	      1.76375915	      1.89275817	     58.75676284	      1.02549897	     -3.02162640	    -14.86362674	     -6.82662455	      3.85610182	     -0.73960693	      3.62647418	     20.75893776	      0.36231181	     10.23139878	     -9.37670939	     -6.82662455	    -18.03143610	      1.49510877	      3.25292020	      6.98451774	    -11.17515366	     -0.91771486	     23.55783037	     87.39117226	      6.57417142	    -11.79130622	      1.29431661	     21.66498577	     85.08285797
      0.01666670	      3.81750579	     -2.87719811	     -2.37272848	      0.89941640	      0.94249841	      0.71359234	     14.95860793	      2.17056823	      1.85799251	     57.98491473	      1.01202768	     -2.06466173	    -16.01418090	     -6.86779565	      3.27513007	     -0.78726507	      5.05576423	     20.39660880	      0.35598798	     10.18089196	     -9.69546121	     -6.86779565	    -17.62390521	      1.80893400	      2.67244743	      6.68498680	    -11.37565912	     -1.65649129	     23.96675511	     86.40868615	      7.14604248	    -11.73374767	      0.83922432	     21.85584465	     84.31592964
      0.03333330	      3.33849476	     -2.34525162	     -2.36847592	      0.89864466	      0.94487331	      0.71348948	     17.42006669	      1.64938433	      2.13570611	     56.11887817	      0.97945920	      0.07297957	    -15.33975499	     -6.92156834	      2.03176756	     -0.28676264	      5.29398830	     19.26732766	      0.33627831	     10.10399641	     -8.47953202	     -6.92156834	    -17.21676491	      1.29573864	      1.96298194	      6.31036060	    -11.15928687	     -2.77685914	     23.91204635	     84.98713296	      8.10592147	    -12.12801004	     -0.06243263	     21.29614377	     83.31812924
      0.05000000	      2.46576825	     -2.20963004	     -2.17176078	      0.89742739	      0.94525863	      0.71235354	     19.68344657	      1.18892835	      1.49422555	     52.46535270	      0.91569315	      1.22380203	    -15.03996964	     -6.92875603	      1.36743081	     -0.38752808	      4.99426237	     18.46171331	      0.32221768	     10.64570623	     -7.37388913	     -6.92875603	    -16.26332233	      1.37355810	      1.03645903	      5.46664245	    -11.21107018	     -3.11018580	     23.90558691	     84.67287610	      8.75057954	    -12.60918221	     -0.29730816	     21.36640950	     83.08111822
      0.06666670	      1.54001039	     -1.93682261	     -2.18607704	      0.89497585	      0.94478251	      0.71213266	     21.86396889	      0.73436723	      1.04458211	     47.95592685	      0.83698882	      1.62970980	    -14.50166289	     -6.94098746	      1.02921535	     -0.32265953	      4.35467576	     18.14768810	      0.31673691	     11.38724722	     -6.42273803	     -6.94098746	    -15.42491933	      1.19888459	      0.22385663	      4.52378096	    -11.15999082	     -3.50940220	     23.55561038	     84.11693943	      9.82499063	    -13.12538814	     -0.51659777	     21.89225950	     82.65960691
      0.08333330	      0.59608530	     -1.52449395	     -2.36359443	      0.89296172	      0.94189813	      0.71325038	     24.02604658	      0.16805101	      0.83787919	     42.96652526	      0.74990733	      1.83936695	    -13.78493273	     -6.97310209	      0.81813413	     -0.13578323	      3.63127502	     17.98022590	      0.31381414	     12.44808000	     -5.06592469	     -6.97310209	    -14.75957137	      0.83458433	     -0.57958682	      3.72673571	    -10.89731373	     -4.51539035	     22.78204880	     82.95213850	     11.23120404	    -13.82136419	     -0.34705954	     23.08201853	     82.11337897
